<svg width="25" height="25" viewBox="0 0 25 25" fill="none" xmlns="http://www.w3.org/2000/svg">
<g clip-path="url(#clip0_75_581)">
<path fill-rule="evenodd" clip-rule="evenodd" d="M18.148 12.48L23.813 6.81996C25.376 5.25996 25.376 2.72004 23.813 1.16004C22.248 -0.409956 19.712 -0.409956 18.148 1.16004L12.484 6.81996L6.82002 1.16004C5.25702 -0.409956 2.72101 -0.409956 1.15601 1.16004C-0.406985 2.72004 -0.406985 5.25996 1.15601 6.81996L6.82002 12.48L1.15601 18.15C-0.406985 19.71 -0.406985 22.2501 1.15601 23.8101C2.72101 25.3801 5.25702 25.3801 6.82002 23.8101L12.484 18.15L18.148 23.8101C19.712 25.3801 22.248 25.3801 23.813 23.8101C25.376 22.2501 25.376 19.71 23.813 18.15L18.148 12.48Z" fill="#FD4F00"/>
</g>
<defs>
<clipPath id="clip0_75_581">
<rect width="25" height="25" fill="white"/>
</clipPath>
</defs>
</svg>
